<svg xmlns="http://www.w3.org/2000/svg" xmlns:xlink="http://www.w3.org/1999/xlink" width="500" zoomAndPan="magnify" viewBox="0 0 375 374.999991" height="500" preserveAspectRatio="xMidYMid meet" version="1.0"><defs><g/><clipPath id="fa322c881c"><path d="M 68.746094 72.921875 L 298.667969 72.921875 L 298.667969 302.84375 L 68.746094 302.84375 Z M 68.746094 72.921875 " clip-rule="nonzero"/></clipPath><clipPath id="030e5a2a5d"><path d="M 183.707031 72.921875 C 120.214844 72.921875 68.746094 124.390625 68.746094 187.882812 C 68.746094 251.375 120.214844 302.84375 183.707031 302.84375 C 247.199219 302.84375 298.667969 251.375 298.667969 187.882812 C 298.667969 124.390625 247.199219 72.921875 183.707031 72.921875 Z M 183.707031 72.921875 " clip-rule="nonzero"/></clipPath><clipPath id="0db51801c9"><path d="M 0.746094 0.921875 L 230.667969 0.921875 L 230.667969 230.84375 L 0.746094 230.84375 Z M 0.746094 0.921875 " clip-rule="nonzero"/></clipPath><clipPath id="173d28d33e"><path d="M 115.707031 0.921875 C 52.214844 0.921875 0.746094 52.390625 0.746094 115.882812 C 0.746094 179.375 52.214844 230.84375 115.707031 230.84375 C 179.199219 230.84375 230.667969 179.375 230.667969 115.882812 C 230.667969 52.390625 179.199219 0.921875 115.707031 0.921875 Z M 115.707031 0.921875 " clip-rule="nonzero"/></clipPath><clipPath id="662f76bd86"><rect x="0" width="231" y="0" height="231"/></clipPath></defs><rect x="-37.5" width="450" fill="#ffffff" y="-37.499999" height="449.999989" fill-opacity="1"/><rect x="-37.5" width="450" fill="#f5c8c9" y="-37.499999" height="449.999989" fill-opacity="1"/><g clip-path="url(#fa322c881c)"><g clip-path="url(#030e5a2a5d)"><g transform="matrix(1, 0, 0, 1, 68, 72)"><g clip-path="url(#662f76bd86)"><g clip-path="url(#0db51801c9)"><g clip-path="url(#173d28d33e)"><path fill="#849064" d="M 0.746094 0.921875 L 230.667969 0.921875 L 230.667969 230.84375 L 0.746094 230.84375 Z M 0.746094 0.921875 " fill-opacity="1" fill-rule="nonzero"/></g></g></g></g></g></g><g fill="#ffffff" fill-opacity="1"><g transform="translate(163.647064, 267.133319)"><g><path d="M 90.359375 -44.625 C 90.359375 -46.738281 89.640625 -48.535156 88.203125 -50.015625 C 86.773438 -51.503906 85.003906 -52.300781 82.890625 -52.40625 L 32.078125 -52.40625 L 32.078125 -11.59375 C 32.078125 -8.84375 33.082031 -6.488281 35.09375 -4.53125 C 37.101562 -2.570312 39.484375 -1.59375 42.234375 -1.59375 L 44.296875 -1.59375 L 44.296875 0 L 9.53125 0 L 9.53125 -1.59375 L 11.59375 -1.59375 C 14.34375 -1.59375 16.695312 -2.570312 18.65625 -4.53125 C 20.613281 -6.488281 21.644531 -8.84375 21.75 -11.59375 L 21.75 -100.515625 C 21.75 -103.054688 20.71875 -105.195312 18.65625 -106.9375 C 16.59375 -108.6875 14.238281 -109.5625 11.59375 -109.5625 L 9.6875 -109.5625 L 9.53125 -111.15625 L 56.0625 -111.15625 C 60.613281 -111.15625 64.632812 -111.523438 68.125 -112.265625 C 71.613281 -113.003906 73.890625 -113.585938 74.953125 -114.015625 L 74.953125 -96.078125 L 73.359375 -96.078125 L 73.359375 -98.453125 C 73.359375 -100.566406 72.617188 -102.390625 71.140625 -103.921875 C 69.660156 -105.460938 67.804688 -106.234375 65.578125 -106.234375 L 32.078125 -106.234375 L 32.078125 -57.171875 L 82.734375 -57.171875 C 84.847656 -57.273438 86.644531 -58.066406 88.125 -59.546875 C 89.613281 -61.023438 90.359375 -62.878906 90.359375 -65.109375 L 90.359375 -67.328125 L 91.9375 -67.328125 L 91.9375 -42.234375 L 90.359375 -42.234375 Z M 90.359375 -44.625 "/></g></g></g><g fill="#ffffff" fill-opacity="1"><g transform="translate(106.505558, 235.88332)"><g><path d="M 62.875 -69.234375 C 60.96875 -67.222656 58.800781 -65.742188 56.375 -64.796875 C 66.75 -63.304688 74.632812 -59.625 80.03125 -53.75 C 85.425781 -47.875 88.125 -40.703125 88.125 -32.234375 C 88.125 -21.960938 83.992188 -13.648438 75.734375 -7.296875 C 67.484375 -0.953125 56.632812 2.21875 43.1875 2.21875 C 29.738281 2.21875 19.203125 -1.085938 11.578125 -7.703125 C 3.960938 -14.316406 0.15625 -23.660156 0.15625 -35.734375 C 0.15625 -36.367188 0.15625 -37.003906 0.15625 -37.640625 L 1.90625 -37.953125 C 4.019531 -22.179688 10.582031 -11.960938 21.59375 -7.296875 L 21.59375 -99.71875 C 21.382812 -102.582031 20.300781 -104.9375 18.34375 -106.78125 C 16.382812 -108.632812 14.023438 -109.5625 11.265625 -109.5625 L 9.359375 -109.5625 L 9.359375 -111.15625 L 36.046875 -111.15625 C 45.992188 -111.15625 53.957031 -108.878906 59.9375 -104.328125 C 65.925781 -99.773438 68.921875 -93.816406 68.921875 -86.453125 C 68.921875 -79.097656 66.90625 -73.359375 62.875 -69.234375 Z M 31.921875 -106.078125 L 31.921875 -4.453125 C 35.410156 -3.921875 39.429688 -3.65625 43.984375 -3.65625 C 54.148438 -3.65625 62.0625 -6.378906 67.71875 -11.828125 C 73.382812 -17.285156 76.21875 -24.351562 76.21875 -33.03125 C 76.21875 -37.6875 75.34375 -41.8125 73.59375 -45.40625 C 71.851562 -49.007812 69.660156 -51.816406 67.015625 -53.828125 C 60.023438 -59.234375 50.175781 -61.9375 37.46875 -61.9375 C 37.363281 -61.9375 37.3125 -61.9375 37.3125 -61.9375 L 37.15625 -63.359375 C 37.257812 -63.359375 37.3125 -63.359375 37.3125 -63.359375 C 42.707031 -63.359375 47.335938 -65.128906 51.203125 -68.671875 C 55.066406 -72.222656 57 -77.703125 57 -85.109375 C 57 -99.085938 49.328125 -106.078125 33.984375 -106.078125 Z M 31.921875 -106.078125 "/></g></g></g><g fill="#ffffff" fill-opacity="1"><g transform="translate(136.741871, 109.252326)"><g><path d="M 0.65625 -0.328125 L -2.578125 -6.65625 L -0.484375 -7.734375 C 0.328125 -8.148438 1.023438 -8.320312 1.609375 -8.25 C 2.191406 -8.175781 2.625 -7.859375 2.90625 -7.296875 C 3.0625 -6.984375 3.125 -6.664062 3.09375 -6.34375 C 3.070312 -6.03125 2.957031 -5.738281 2.75 -5.46875 C 3.09375 -5.5 3.414062 -5.429688 3.71875 -5.265625 C 4.03125 -5.109375 4.269531 -4.867188 4.4375 -4.546875 C 4.71875 -3.992188 4.734375 -3.445312 4.484375 -2.90625 C 4.242188 -2.375 3.765625 -1.925781 3.046875 -1.5625 Z M 0.015625 -6.8125 L -0.96875 -6.296875 L -0.09375 -4.5625 L 0.875 -5.0625 C 1.332031 -5.289062 1.632812 -5.535156 1.78125 -5.796875 C 1.925781 -6.054688 1.921875 -6.335938 1.765625 -6.640625 C 1.617188 -6.929688 1.40625 -7.085938 1.125 -7.109375 C 0.851562 -7.140625 0.484375 -7.039062 0.015625 -6.8125 Z M 1.296875 -1.859375 L 2.53125 -2.5 C 2.894531 -2.6875 3.144531 -2.898438 3.28125 -3.140625 C 3.425781 -3.390625 3.421875 -3.671875 3.265625 -3.984375 C 2.972656 -4.554688 2.421875 -4.640625 1.609375 -4.234375 L 0.40625 -3.609375 Z M 1.296875 -1.859375 "/></g></g></g><g fill="#ffffff" fill-opacity="1"><g transform="translate(148.987041, 103.548644)"><g><path d="M 2.921875 -8.46875 L 4.15625 -8.875 L 5.359375 -5.296875 C 5.585938 -4.617188 5.671875 -4.003906 5.609375 -3.453125 C 5.546875 -2.898438 5.34375 -2.421875 5 -2.015625 C 4.65625 -1.609375 4.1875 -1.300781 3.59375 -1.09375 C 2.632812 -0.769531 1.832031 -0.769531 1.1875 -1.09375 C 0.539062 -1.414062 0.0507812 -2.078125 -0.28125 -3.078125 L -1.578125 -6.953125 L -0.359375 -7.375 L 0.90625 -3.59375 C 1.125 -2.914062 1.421875 -2.46875 1.796875 -2.25 C 2.179688 -2.03125 2.648438 -2.015625 3.203125 -2.203125 C 3.753906 -2.390625 4.109375 -2.707031 4.265625 -3.15625 C 4.421875 -3.601562 4.367188 -4.203125 4.109375 -4.953125 Z M 2.921875 -8.46875 "/></g></g></g><g fill="#ffffff" fill-opacity="1"><g transform="translate(163.03728, 99.460517)"><g><path d="M 2.90625 -0.421875 C 2.082031 -0.273438 1.410156 -0.34375 0.890625 -0.625 C 0.367188 -0.914062 0.0078125 -1.410156 -0.1875 -2.109375 L 0.984375 -2.515625 C 1.253906 -1.691406 1.851562 -1.363281 2.78125 -1.53125 C 3.175781 -1.59375 3.472656 -1.722656 3.671875 -1.921875 C 3.867188 -2.128906 3.941406 -2.375 3.890625 -2.65625 C 3.847656 -2.925781 3.695312 -3.101562 3.4375 -3.1875 C 3.1875 -3.28125 2.804688 -3.347656 2.296875 -3.390625 C 1.816406 -3.421875 1.398438 -3.484375 1.046875 -3.578125 C 0.691406 -3.671875 0.398438 -3.832031 0.171875 -4.0625 C -0.046875 -4.300781 -0.191406 -4.632812 -0.265625 -5.0625 C -0.347656 -5.476562 -0.304688 -5.863281 -0.140625 -6.21875 C 0.015625 -6.582031 0.265625 -6.890625 0.609375 -7.140625 C 0.953125 -7.398438 1.367188 -7.578125 1.859375 -7.671875 C 2.515625 -7.785156 3.078125 -7.707031 3.546875 -7.4375 C 4.023438 -7.164062 4.351562 -6.738281 4.53125 -6.15625 L 3.4375 -5.75 C 3.1875 -6.414062 2.707031 -6.6875 2 -6.5625 C 1.65625 -6.5 1.390625 -6.359375 1.203125 -6.140625 C 1.023438 -5.921875 0.960938 -5.671875 1.015625 -5.390625 C 1.054688 -5.097656 1.195312 -4.894531 1.4375 -4.78125 C 1.675781 -4.664062 2.066406 -4.59375 2.609375 -4.5625 C 3.078125 -4.53125 3.484375 -4.476562 3.828125 -4.40625 C 4.179688 -4.332031 4.46875 -4.179688 4.6875 -3.953125 C 4.914062 -3.734375 5.066406 -3.40625 5.140625 -2.96875 C 5.210938 -2.570312 5.164062 -2.195312 5 -1.84375 C 4.84375 -1.488281 4.582031 -1.1875 4.21875 -0.9375 C 3.863281 -0.6875 3.425781 -0.515625 2.90625 -0.421875 Z M 2.90625 -0.421875 "/></g></g></g><g fill="#ffffff" fill-opacity="1"><g transform="translate(176.030786, 97.696488)"><g><path d="M 0.734375 -0.03125 L 0.359375 -7.125 L 1.65625 -7.203125 L 2.03125 -0.109375 Z M 0.734375 -0.03125 "/></g></g></g><g fill="#ffffff" fill-opacity="1"><g transform="translate(186.024048, 97.48726)"><g><path d="M 5.9375 -6.671875 L 7.1875 -6.578125 L 6.640625 0.515625 L 5.5 0.421875 L 2.375 -4.78125 L 1.984375 0.15625 L 0.734375 0.0625 L 1.28125 -7.03125 L 2.421875 -6.953125 L 5.5625 -1.734375 Z M 5.9375 -6.671875 "/></g></g></g><g fill="#ffffff" fill-opacity="1"><g transform="translate(200.490011, 99.197367)"><g><path d="M 6.515625 -4.671875 L 3.28125 -5.40625 L 2.875 -3.609375 L 5.9375 -2.90625 L 5.6875 -1.8125 L 2.625 -2.515625 L 2.203125 -0.65625 L 5.53125 0.109375 L 5.21875 1.1875 L 0.71875 0.15625 L 2.296875 -6.78125 L 6.765625 -5.765625 Z M 6.515625 -4.671875 "/></g></g></g><g fill="#ffffff" fill-opacity="1"><g transform="translate(212.915376, 102.517847)"><g><path d="M 2.71875 1.125 C 1.9375 0.832031 1.394531 0.429688 1.09375 -0.078125 C 0.789062 -0.597656 0.734375 -1.207031 0.921875 -1.90625 L 2.125 -1.65625 C 1.9375 -0.8125 2.285156 -0.222656 3.171875 0.109375 C 3.546875 0.253906 3.867188 0.289062 4.140625 0.21875 C 4.410156 0.144531 4.597656 -0.0234375 4.703125 -0.296875 C 4.796875 -0.546875 4.757812 -0.773438 4.59375 -0.984375 C 4.425781 -1.191406 4.128906 -1.441406 3.703125 -1.734375 C 3.304688 -2.003906 2.976562 -2.269531 2.71875 -2.53125 C 2.46875 -2.800781 2.304688 -3.09375 2.234375 -3.40625 C 2.160156 -3.71875 2.203125 -4.078125 2.359375 -4.484375 C 2.503906 -4.890625 2.738281 -5.207031 3.0625 -5.4375 C 3.382812 -5.664062 3.753906 -5.796875 4.171875 -5.828125 C 4.597656 -5.867188 5.046875 -5.800781 5.515625 -5.625 C 6.140625 -5.394531 6.582031 -5.039062 6.84375 -4.5625 C 7.113281 -4.09375 7.175781 -3.5625 7.03125 -2.96875 L 5.890625 -3.1875 C 6.015625 -3.882812 5.738281 -4.363281 5.0625 -4.625 C 4.738281 -4.738281 4.441406 -4.75 4.171875 -4.65625 C 3.910156 -4.5625 3.726562 -4.378906 3.625 -4.109375 C 3.519531 -3.835938 3.535156 -3.59375 3.671875 -3.375 C 3.816406 -3.15625 4.113281 -2.890625 4.5625 -2.578125 C 4.957031 -2.328125 5.285156 -2.078125 5.546875 -1.828125 C 5.804688 -1.578125 5.976562 -1.300781 6.0625 -1 C 6.144531 -0.695312 6.109375 -0.335938 5.953125 0.078125 C 5.804688 0.460938 5.570312 0.765625 5.25 0.984375 C 4.925781 1.203125 4.546875 1.328125 4.109375 1.359375 C 3.679688 1.390625 3.21875 1.3125 2.71875 1.125 Z M 2.71875 1.125 "/></g></g></g><g fill="#ffffff" fill-opacity="1"><g transform="translate(224.956312, 107.596271)"><g><path d="M 2.53125 1.484375 C 1.800781 1.085938 1.320312 0.613281 1.09375 0.0625 C 0.875 -0.488281 0.90625 -1.09375 1.1875 -1.75 L 2.328125 -1.34375 C 2.035156 -0.53125 2.300781 0.0976562 3.125 0.546875 C 3.476562 0.742188 3.789062 0.828125 4.0625 0.796875 C 4.34375 0.765625 4.550781 0.617188 4.6875 0.359375 C 4.820312 0.117188 4.820312 -0.109375 4.6875 -0.328125 C 4.550781 -0.554688 4.296875 -0.847656 3.921875 -1.203125 C 3.554688 -1.535156 3.265625 -1.847656 3.046875 -2.140625 C 2.835938 -2.441406 2.71875 -2.75 2.6875 -3.0625 C 2.65625 -3.382812 2.742188 -3.738281 2.953125 -4.125 C 3.160156 -4.5 3.4375 -4.773438 3.78125 -4.953125 C 4.132812 -5.140625 4.519531 -5.222656 4.9375 -5.203125 C 5.363281 -5.179688 5.796875 -5.050781 6.234375 -4.8125 C 6.816406 -4.488281 7.207031 -4.078125 7.40625 -3.578125 C 7.613281 -3.078125 7.601562 -2.539062 7.375 -1.96875 L 6.28125 -2.328125 C 6.488281 -3.015625 6.28125 -3.53125 5.65625 -3.875 C 5.351562 -4.03125 5.0625 -4.082031 4.78125 -4.03125 C 4.507812 -3.976562 4.300781 -3.828125 4.15625 -3.578125 C 4.019531 -3.316406 4.003906 -3.066406 4.109375 -2.828125 C 4.222656 -2.585938 4.484375 -2.285156 4.890625 -1.921875 C 5.234375 -1.617188 5.515625 -1.320312 5.734375 -1.03125 C 5.960938 -0.75 6.09375 -0.453125 6.125 -0.140625 C 6.164062 0.171875 6.082031 0.523438 5.875 0.921875 C 5.675781 1.273438 5.398438 1.535156 5.046875 1.703125 C 4.703125 1.878906 4.3125 1.953125 3.875 1.921875 C 3.445312 1.890625 3 1.742188 2.53125 1.484375 Z M 2.53125 1.484375 "/></g></g></g><g fill="#ffffff" fill-opacity="1"><g transform="translate(236.199466, 114.353149)"><g/></g></g><g fill="#ffffff" fill-opacity="1"><g transform="translate(243.88321, 120.276679)"><g><path d="M 7.796875 -1 L 5.515625 -3.078125 L 4.21875 -1.65625 L 6.375 0.3125 L 5.625 1.140625 L 3.46875 -0.828125 L 1.484375 1.34375 L 0.546875 0.5 L 5.328125 -4.75 L 8.546875 -1.828125 Z M 7.796875 -1 "/></g></g></g><g fill="#ffffff" fill-opacity="1"><g transform="translate(252.710576, 128.990685)"><g><path d="M 0.484375 0.5625 L 5.859375 -4.09375 L 6.703125 -3.125 L 1.328125 1.53125 Z M 0.484375 0.5625 "/></g></g></g><g fill="#ffffff" fill-opacity="1"><g transform="translate(259.005086, 136.755401)"><g><path d="M 8.90625 0.609375 L 9.59375 1.65625 L 3.65625 5.5625 L 3.03125 4.609375 L 5.234375 -1.0625 L 1.09375 1.65625 L 0.40625 0.609375 L 6.34375 -3.296875 L 6.96875 -2.34375 L 4.765625 3.328125 Z M 8.90625 0.609375 "/></g></g></g><g fill="#ffffff" fill-opacity="1"><g transform="translate(266.538371, 149.194579)"><g><path d="M 0.296875 0.671875 L 6.765625 -2.28125 L 7.640625 -0.359375 C 8.222656 0.898438 8.390625 1.972656 8.140625 2.859375 C 7.890625 3.753906 7.234375 4.441406 6.171875 4.921875 C 5.523438 5.222656 4.890625 5.335938 4.265625 5.265625 C 3.648438 5.203125 3.085938 4.972656 2.578125 4.578125 C 2.066406 4.179688 1.648438 3.628906 1.328125 2.921875 Z M 1.890625 1.359375 L 2.359375 2.40625 C 2.703125 3.164062 3.144531 3.65625 3.6875 3.875 C 4.238281 4.101562 4.875 4.054688 5.59375 3.734375 C 6.332031 3.398438 6.789062 2.945312 6.96875 2.375 C 7.15625 1.8125 7.054688 1.113281 6.671875 0.28125 L 6.265625 -0.625 Z M 1.890625 1.359375 "/></g></g></g><g fill="#ffffff" fill-opacity="1"><g transform="translate(272.076441, 162.773215)"><g><path d="M 7.21875 3.453125 L 6.3125 0.265625 L 4.5625 0.765625 L 5.421875 3.78125 L 4.328125 4.09375 L 3.46875 1.078125 L 1.640625 1.609375 L 2.578125 4.890625 L 1.484375 5.140625 L 0.203125 0.703125 L 7.03125 -1.265625 L 8.296875 3.140625 Z M 7.21875 3.453125 "/></g></g></g><g fill="#ffffff" fill-opacity="1"><g transform="translate(275.181366, 175.248297)"><g><path d="M 2.109375 6.109375 L 1.171875 6.5625 C 1.046875 6.4375 0.941406 6.28125 0.859375 6.09375 C 0.773438 5.914062 0.71875 5.71875 0.6875 5.5 C 0.582031 4.757812 0.828125 4.132812 1.421875 3.625 L 2.84375 2.375 C 2.988281 2.238281 3.085938 2.109375 3.140625 1.984375 C 3.191406 1.867188 3.207031 1.742188 3.1875 1.609375 L 3.1875 1.5625 L 0.28125 1.984375 L 0.109375 0.734375 L 7.140625 -0.265625 L 7.453125 1.90625 C 7.578125 2.800781 7.484375 3.503906 7.171875 4.015625 C 6.867188 4.523438 6.398438 4.828125 5.765625 4.921875 C 5.367188 4.972656 5.019531 4.9375 4.71875 4.8125 C 4.414062 4.6875 4.160156 4.484375 3.953125 4.203125 C 3.742188 3.921875 3.585938 3.601562 3.484375 3.25 C 3.398438 3.445312 3.242188 3.648438 3.015625 3.859375 L 2.28125 4.53125 C 2.082031 4.707031 1.953125 4.863281 1.890625 5 C 1.835938 5.144531 1.828125 5.3125 1.859375 5.5 C 1.890625 5.726562 1.972656 5.929688 2.109375 6.109375 Z M 6.390625 1.96875 L 6.265625 1.125 L 4.1875 1.421875 L 4.296875 2.203125 C 4.378906 2.742188 4.519531 3.128906 4.71875 3.359375 C 4.925781 3.597656 5.21875 3.691406 5.59375 3.640625 C 6.269531 3.535156 6.535156 2.976562 6.390625 1.96875 Z M 6.390625 1.96875 "/></g></g></g></svg>